<svg width="267" height="267" viewBox="0 0 267 267" fill="none" xmlns="http://www.w3.org/2000/svg">
<g clip-path="url(#clip0_1_45)">
<path d="M82.3472 26.0659C57.6052 37.0129 42.1304 54.8018 33.3972 67.7513C23.9187 81.8578 20.2252 93.5501 20.2252 93.6503C20.203 94.0508 20.2809 93.4611 20.2252 93.8616C17.4885 101.649 14.9631 113.864 14.9631 113.965C12.015 128.917 13.3834 142.812 13.3834 143.023L13.706 145.76C13.9951 141.983 14.4853 138.225 15.1745 134.501C15.3859 133.022 19.2907 112.073 34.0202 95.4414C35.6 93.0161 52.6546 70.5993 84.0271 70.5993C90.7689 70.5993 97.8221 71.645 104.875 73.7476H105.087C105.509 73.8589 114.766 77.2298 118.136 78.9096C121.296 80.4894 126.881 82.9146 126.981 82.9146H127.203C157.408 97.6553 183.518 102.383 183.729 102.495C191.205 103.763 197.947 104.386 203.944 104.386C215.947 104.386 224.58 101.76 229.108 96.7096C231.745 93.8171 232.524 90.4908 232.368 87.6539C232.579 76.6958 223.635 64.9144 216.048 57.0156C210.812 51.5034 205.068 46.4972 198.893 42.0636C176.153 25.2204 151.834 16.6986 126.358 16.6986C100.247 16.7988 82.5586 25.9546 82.3472 26.0659ZM164.884 55.6473C168.043 55.6473 170.568 58.1726 170.568 61.321C170.573 62.0693 170.429 62.8111 170.145 63.5034C169.861 64.1957 169.443 64.8249 168.914 65.3546C168.385 65.8842 167.757 66.3039 167.065 66.5892C166.373 66.8746 165.632 67.02 164.884 67.017C164.136 67.0199 163.396 66.8749 162.705 66.5903C162.014 66.3056 161.386 65.887 160.857 65.3585C160.329 64.83 159.91 64.2022 159.625 63.5111C159.341 62.8201 159.196 62.0795 159.199 61.3321C159.199 58.1726 161.724 55.6473 164.884 55.6473ZM91.403 34.0648C92.2374 34.0648 92.7714 34.2761 92.9827 34.2761L128.883 45.4345L127.515 48.2714L110.349 42.9091C104.252 41.0179 97.8889 39.0042 91.9259 37.1241C91.8146 37.1241 91.6144 37.0129 91.403 37.0129C91.1805 37.0129 90.869 37.0129 90.6576 37.1241C87.398 37.9585 78.4535 41.118 75.8169 45.8573C75.4646 46.4928 75.2454 47.1934 75.1727 47.9164C75.1001 48.6394 75.1754 49.3696 75.3941 50.0625C75.3941 50.1738 77.2854 56.07 82.0246 62.1665L105.832 61.0095L121.719 60.2753L120.139 63.5349L80.6562 65.4261C74.76 58.2728 72.446 51.1194 72.446 51.1194C68.7636 39.5382 89.9234 34.1538 89.9234 34.1538C90.424 34.1426 90.9246 34.087 91.403 34.0425V34.0648ZM216.259 209.25C240.478 198.726 250.791 180.503 250.791 180.503C273.43 149.665 265.743 117.124 265.743 117.124C251.325 148.496 238.153 157.129 238.153 157.129C273.642 103.129 238.375 70.488 238.375 70.488C252.793 101.238 233.625 138.707 233.625 138.707C217.516 172.616 194.665 184.72 194.665 184.72C220.141 189.459 238.887 172.293 238.887 172.293C202.353 211.776 162.77 209.884 162.77 209.884C179.402 228.519 204.355 226.939 204.355 226.939C171.714 234.615 141.076 223.779 115.911 202.831C111.183 198.937 106.655 194.71 102.45 190.193C100.848 188.524 99.3351 186.744 97.811 185.031C97.2881 204.511 117.602 222.622 117.602 222.622C92.1261 212.087 80.4449 189.247 80.4449 189.247C80.4449 189.247 63.279 159.978 75.7056 126.603C88.021 93.6503 124.867 86.2633 125.813 86.0519C122.806 84.6655 119.787 83.3045 116.757 81.969C113.497 80.3893 104.019 76.9071 104.019 76.9071C97.5304 74.9436 90.7947 73.9171 84.016 73.8589C52.955 73.8589 36.4344 97.3326 36.4344 97.3326C21.7939 113.764 18.3229 135.024 18.3229 135.024C14.2066 155.35 18.6344 176.721 18.6344 176.721C18.6344 176.721 19.0571 178.4 19.1684 179.135C22.5392 187.145 26.8446 195.043 31.9065 202.508C59.274 243.359 103.707 257.466 103.707 257.466C169.5 279.783 214.457 246.942 214.457 246.942C255.842 218.517 264.152 185.665 264.152 185.665C230.666 211.675 216.259 209.25 216.259 209.25ZM14.5404 166.297C12.7287 159.801 11.3902 153.183 10.5354 146.494C10.4241 145.404 10.2572 144.191 10.1237 143.134C10.1237 143.134 8.64412 128.816 11.8036 113.13C11.8036 113.13 11.9149 112.707 12.0261 112.073C12.4266 109.815 13.0607 107.545 13.4946 105.654C14.4402 101.538 15.8086 96.5984 17.1659 92.5934C17.1659 92.5934 31.7062 44.9005 80.8676 23.1178C80.8676 23.1178 97.8221 14.1621 123.398 13.528C121.657 11.7468 119.758 10.1271 117.725 8.68863C105.71 0.678627 87.8207 -1.94687 76.9739 9.32275C73.7142 12.6936 70.9664 16.376 67.9181 19.7469C64.4471 23.5294 60.2419 26.6889 55.3914 28.48C51.1861 30.0598 46.9697 29.7483 42.6532 30.4825C38.2366 31.2168 33.7087 32.7965 30.1265 35.6445C26.2327 38.804 24.653 43.0093 24.2302 47.8486C23.8075 51.6423 23.9187 55.536 23.7074 59.3296C23.1734 70.488 19.5911 73.6475 11.5922 79.8553C8.22137 82.3806 5.3845 85.7515 3.28187 89.3337C-3.03713 100.492 7.06437 112.073 7.59837 123.343C7.70962 125.657 7.48712 127.971 6.65275 130.185C5.80725 132.599 4.11625 134.19 2.759 136.192C0.856621 138.818 -0.411629 141.977 0.122371 145.237C0.645246 148.496 2.33625 151.556 3.90487 154.393C6.96425 159.455 10.7579 163.983 14.7517 168.299C14.8852 168.477 15.1745 168.744 15.3525 168.878L14.5404 166.297Z" fill="#58585B"/>
</g>
<defs>
<clipPath id="clip0_1_45">
<rect width="267" height="267" fill="white"/>
</clipPath>
</defs>
</svg>
